<svg width="100" height="100" viewBox="0 0 100 100" fill="none" xmlns="http://www.w3.org/2000/svg">
<path d="M50.0002 8.33325C27.0418 8.33325 8.3335 27.0416 8.3335 49.9999C8.3335 72.9583 27.0418 91.6666 50.0002 91.6666C72.9585 91.6666 91.6668 72.9583 91.6668 49.9999C91.6668 27.0416 72.9585 8.33325 50.0002 8.33325ZM69.9168 40.4166L46.2918 64.0416C45.7085 64.6249 44.9168 64.9583 44.0835 64.9583C43.2502 64.9583 42.4585 64.6249 41.8752 64.0416L30.0835 52.2499C28.8752 51.0416 28.8752 49.0416 30.0835 47.8333C31.2918 46.6249 33.2918 46.6249 34.5002 47.8333L44.0835 57.4166L65.5002 35.9999C66.7085 34.7916 68.7085 34.7916 69.9168 35.9999C71.1252 37.2083 71.1252 39.1666 69.9168 40.4166Z" fill="#71C641"/>
</svg>
